<svg width="247" height="29" viewBox="0 0 247 29" fill="white" xmlns="http://www.w3.org/2000/svg" color="white">
	<path d="M49.7107 9.04085C49.6653 9.09699 47.0429 13.7694 44.9525 17.4297C45.6569 18.4066 46.3835 19.3832 47.1166 20.4612C47.412 20.8205 47.6266 21.4208 47.3334 21.7121C47.1609 21.8835 46.8312 21.9636 46.4743 21.5915C45.7154 20.8002 44.8136 19.6919 44.116 18.8532C42.8209 21.2448 41.8463 23.2818 41.2361 25.4721C41.1255 25.869 40.869 26.5601 40.46 26.5601C40.4032 26.5601 40.3856 26.5585 40.3288 26.5472C39.863 26.4574 39.9408 25.731 40.0317 25.2819C40.4066 23.272 41.5526 20.2322 43.0863 17.4701C41.9616 15.8532 41.0032 13.9125 40.4011 12.8908C40.0034 13.8115 39.4468 15.5995 38.7992 16.8234C36.8679 20.4837 35.2206 22.1904 33.6188 22.1904C33.1076 22.1904 32.6645 21.9771 32.3237 21.5729C31.8238 20.9778 31.2104 19.6529 31.6648 15.0157C31.9034 12.5904 32.3237 10.4346 32.3351 10.3448C32.4259 9.88446 32.869 9.30482 33.3348 9.38342C33.8006 9.47324 33.6557 10.1549 33.6557 10.6584C33.5834 11.1979 33.4175 13.0059 33.1902 15.4536C32.8153 19.5855 32.9729 20.5436 33.6188 20.8002C34.7637 20.8002 36.1848 18.7496 36.8595 17.4701C38.1205 15.0785 39.2672 11.0511 39.3552 10.6592C39.4568 10.2062 39.6441 9.26866 40.2097 9.51242C40.5477 9.65809 40.8896 10.3144 41.0373 10.6176C41.0486 10.6513 42.1165 13.2911 43.9456 15.9859C45.9718 12.6399 48.318 8.40932 48.477 8.19598C48.6361 7.98265 48.8322 7.65648 49.1086 7.40938C49.4018 7.14718 49.833 6.98094 50.0176 7.10438C50.2308 7.22835 50.3212 7.47119 50.2679 7.84638C50.2246 8.15083 49.8278 8.86482 49.7107 9.04085Z" fill="currentcolor">
	</path>
	<path d="M32.2988 2.69165C28.9048 12.786 27.577 21.8476 26.6045 28.1106C26.4855 28.9014 25.987 28.9827 25.7301 28.9612C25.5015 28.9112 25.2999 28.6604 25.3906 27.8981C26.7952 16.2508 28.9075 7.54518 30.5935 2.01969C30.8512 1.17482 31.5207 0.669462 31.9958 1.20394C32.4825 1.66 32.4849 2.13811 32.2988 2.69165Z" fill="currentcolor">
	</path>
	<path fill-rule="evenodd" clip-rule="evenodd" d="M52.4152 22.014C51.9448 21.8608 51.5127 21.6008 51.2358 21.3662C49.6147 19.9305 49.5445 17.01 49.907 15.1482C49.1511 14.3183 49.0586 14.0928 49.018 14.026C48.9774 13.9593 48.9386 13.9031 48.8886 13.7883C48.8387 13.6736 48.824 13.615 48.824 13.615C48.7676 13.369 48.9242 13.1778 49.1063 13.0614C49.2885 12.945 49.6225 13.0215 49.8222 13.1812C50.0218 13.3408 50.0819 13.3672 50.3511 13.5833C51.0407 11.9622 52.2492 10.4669 53.4497 9.88879C54.276 9.49813 55.1553 9.32165 55.9149 9.67228C56.9222 10.1243 57.4704 11.3435 57.4103 12.6025C57.3423 14.0756 56.2386 15.9404 54.1785 16.6303C53.1361 16.9814 52.085 16.7984 51.1114 16.244C50.9596 17.8134 51.3355 19.6338 52.1733 20.4073C52.7797 20.9673 54.0166 21.2302 55.3065 20.6811C56.6772 20.0976 57.3188 19.364 57.8027 19.0598C58.1827 18.821 58.7196 19.3757 58.075 20.0306C57.4303 20.6856 56.1182 21.5713 55.2587 21.8925C53.9762 22.3716 53.1395 22.2501 52.4152 22.014ZM53.7959 15.3661C53.0343 15.6232 52.1621 15.2664 51.4196 14.6739C51.9125 13.1125 53.0742 11.4965 54.0907 11.0028C54.521 10.8027 54.9695 10.7717 55.3241 10.9285C55.7666 11.1346 56.0801 11.8576 56.0503 12.5182C56.0101 13.495 55.2004 14.8958 53.7959 15.3661Z" fill="currentcolor">
	</path>
	<path d="M19.2128 19.5149C19.1261 19.2537 19.0047 18.992 18.9003 18.7484C18.7441 18.3821 18.5707 18.0164 18.4144 17.6678L18.3973 17.6332C16.9397 14.4789 15.3949 11.2719 13.7639 8.11765L13.6943 7.97798C13.521 7.64694 13.3647 7.31589 13.1908 7.00192C12.9827 6.61863 12.7568 6.21775 12.4444 5.83446C11.7503 5.01512 10.7957 4.57959 9.75441 4.57959C8.71311 4.57959 7.7585 5.03271 7.06447 5.83446C6.75198 6.21775 6.50904 6.61863 6.31801 7.00192C6.14464 7.33296 5.97074 7.66401 5.79736 7.99505L5.7278 8.13471C4.11394 11.289 2.55199 14.4784 1.11203 17.6502L1.0949 17.7025C0.938649 18.0511 0.765272 18.4168 0.609024 18.7654C0.504687 19.0096 0.400868 19.2532 0.29653 19.532C0.0188152 20.3162 -0.0678734 21.0481 0.0535945 21.7976C0.2794 23.3659 1.3207 24.7082 2.77832 25.3005C3.3161 25.5271 3.88918 25.6315 4.49651 25.6315C4.68754 25.6315 4.86092 25.6139 5.05195 25.5969C5.76362 25.51 6.45765 25.2834 7.15168 24.8825C8.00195 24.3948 8.8351 23.6975 9.75493 22.6868C10.6748 23.6975 11.5079 24.3948 12.3582 24.8825C13.0522 25.2834 13.7639 25.51 14.4579 25.5969C14.6489 25.6145 14.8223 25.6315 15.0133 25.6315C15.6036 25.6315 16.1761 25.5271 16.7315 25.3005C18.1892 24.7077 19.2305 23.3659 19.4563 21.7976C19.5596 21.031 19.49 20.2991 19.2128 19.5149ZM9.75441 20.6824C8.60877 19.2361 7.87997 17.8768 7.6199 16.744C7.51556 16.2733 7.4813 15.8377 7.55034 15.4545C7.60225 15.1234 7.72372 14.827 7.89761 14.5658C8.2968 13.9906 8.99083 13.642 9.75441 13.642C10.518 13.642 11.2297 13.9906 11.6112 14.5658C11.7846 14.827 11.9061 15.1234 11.9585 15.4545C12.0104 15.8377 11.9933 16.2738 11.8889 16.744C11.6289 17.8768 10.8824 19.2361 9.75441 20.6824ZM18.1715 21.6755C18.0153 22.7737 17.2865 23.7146 16.2452 24.133C15.7416 24.342 15.1867 24.4118 14.6313 24.342C14.0935 24.2722 13.5729 24.0979 13.0174 23.7844C12.2538 23.3489 11.4903 22.7038 10.6223 21.7278C11.9933 20.0198 12.8612 18.4515 13.1737 17.0399C13.3123 16.3948 13.3471 15.785 13.2604 15.245C13.1737 14.7049 12.9827 14.2167 12.7049 13.7987C12.0628 12.8578 10.952 12.2997 9.73728 12.2997C8.5226 12.2997 7.41174 12.8573 6.76963 13.7987C6.47478 14.2172 6.30088 14.7049 6.2142 15.245C6.12751 15.8026 6.16229 16.4124 6.30088 17.0399C6.61338 18.4515 7.48078 20.0198 8.85223 21.7278C7.9843 22.6863 7.22072 23.3484 6.45713 23.7844C5.9017 24.0979 5.38105 24.2722 4.84327 24.342C4.28784 24.4118 3.73241 24.342 3.22941 24.133C2.20576 23.7146 1.4593 22.7737 1.30305 21.6755C1.23349 21.1355 1.28592 20.6126 1.49408 20.0374C1.56364 19.8284 1.65033 19.6189 1.77179 19.3753C1.92804 19.0266 2.08429 18.6609 2.24053 18.3299L2.25767 18.2777C3.73293 15.1058 5.29488 11.9164 6.90874 8.76215L6.9783 8.64008C7.15168 8.32662 7.30793 7.97798 7.48182 7.66401C7.6552 7.33296 7.84622 7.00192 8.07203 6.72311C8.50599 6.20016 9.09568 5.93895 9.75545 5.93895C10.4147 5.93895 10.9878 6.21775 11.4389 6.72311C11.6818 7.00192 11.8552 7.31538 12.0291 7.66401C12.2025 7.97747 12.3764 8.30903 12.5326 8.62249L12.6022 8.76215C14.216 11.9164 15.7608 15.1058 17.2185 18.2777L17.2356 18.3123C17.3918 18.6609 17.5652 19.0266 17.7215 19.3753C17.8258 19.6194 17.9125 19.8284 17.9992 20.0374C18.1886 20.6126 18.2406 21.1355 18.1715 21.6755Z" fill="currentcolor">
	</path>
	<path d="M91.3661 18.085C91.2393 18.085 91.2013 18.1815 91.1886 18.3142C91.1383 18.6536 90.994 18.9742 90.7704 19.2429C90.3647 19.653 89.731 19.6771 88.8817 19.6771C87.6141 19.6771 87.1957 19.5686 86.9295 19.3394C86.6633 19.1102 86.5872 18.0006 86.5872 16.0346V13.3208C86.5872 10.981 86.5872 10.5467 86.5872 10.0643C86.5872 9.58184 86.7521 9.2682 87.1831 9.18377C87.394 9.16897 87.6059 9.16897 87.8169 9.18377C88.007 9.18377 88.1084 9.18379 88.1084 9.05111C88.1084 8.91844 87.9943 8.91846 87.7662 8.91846C87.1324 8.91846 85.9535 8.91846 85.5732 8.91846C85.1929 8.91846 84.1154 8.91846 83.3549 8.91846C83.114 8.91846 83 8.91844 83 9.05111C83 9.18379 83.1014 9.18377 83.2788 9.18377C83.4558 9.16505 83.6344 9.16505 83.8113 9.18377C84.3437 9.29232 84.4704 9.5336 84.5084 10.0643C84.5465 10.595 84.5084 10.993 84.5084 13.3208V16.0346C84.5084 17.4458 84.5084 18.664 84.4324 19.3153C84.369 19.7615 84.293 20.0993 83.9634 20.1596C83.772 20.2002 83.5764 20.2205 83.3803 20.2199C83.1901 20.2199 83.1267 20.2198 83.1267 20.3404C83.1267 20.4611 83.2408 20.4972 83.4563 20.4972H84.5718H85.4971C86.1563 20.4972 86.7647 20.4972 87.4746 20.4972C88.1844 20.4972 89.0464 20.4972 90.2126 20.4972C91.0492 20.4972 91.138 20.4249 91.2267 20.0872C91.3527 19.5026 91.4332 18.91 91.4675 18.3142C91.5056 18.1694 91.4802 18.085 91.3661 18.085Z" fill="currentcolor">
	</path>
	<path d="M104.306 8.8568C103.672 8.8568 102.658 8.8568 102.468 8.8568C102.278 8.8568 101.429 8.8568 100.605 8.8568C100.377 8.8568 100.262 8.85678 100.262 8.98946C100.262 9.12213 100.364 9.12211 100.541 9.12211C100.735 9.10492 100.93 9.10492 101.124 9.12211C101.657 9.23066 101.783 9.47194 101.822 10.0026C101.86 10.5333 101.822 10.9313 101.822 13.2591V15.1769C101.822 16.7569 101.822 18.1439 100.884 18.9882C100.283 19.5328 99.482 19.8316 98.6525 19.8205C97.9227 19.8526 97.2059 19.6295 96.6371 19.1933C95.8512 18.5782 95.3695 17.6374 95.3695 15.4061V13.2471C95.3695 10.9072 95.3695 10.473 95.3695 9.99056C95.3695 9.50811 95.5342 9.19447 95.9652 9.11004C96.1212 9.09567 96.2783 9.09567 96.4342 9.11004C96.599 9.11004 96.6878 9.11006 96.6878 8.97738C96.6878 8.84471 96.5736 8.84473 96.3328 8.84473C95.7497 8.84473 94.7357 8.84473 94.3427 8.84473C93.9498 8.84473 92.8342 8.84473 91.985 8.84473C91.7441 8.84473 91.6301 8.84471 91.6301 8.97738C91.6301 9.11006 91.7314 9.11004 91.9089 9.11004C92.1197 9.09089 92.3319 9.09089 92.5427 9.11004C93.0751 9.21859 93.2018 9.45987 93.2399 9.99056C93.2779 10.5213 93.2399 10.9193 93.2399 13.2471V15.4905C93.2399 17.7218 93.8483 18.8556 94.6849 19.5672C95.6998 20.3342 96.9792 20.7128 98.2723 20.6286C99.4995 20.6787 100.701 20.2818 101.631 19.5189C102.988 18.4093 103.165 16.6001 103.165 14.8874V13.2471C103.165 10.9072 103.165 10.473 103.165 9.99056C103.165 9.50811 103.33 9.19447 103.761 9.11004C103.917 9.09567 104.074 9.09567 104.23 9.11004C104.42 9.11004 104.522 9.11006 104.522 8.97738C104.522 8.84471 104.534 8.8568 104.306 8.8568Z" fill="currentcolor">
	</path>
	<path d="M116.896 20.2065C116.689 20.203 116.484 20.1705 116.288 20.1101C115.905 20.0036 115.573 19.7732 115.35 19.4587C114.944 18.9642 112.32 14.8031 111.813 14.0432L114.462 10.4248C114.944 9.7494 115.274 9.3152 115.641 9.21871C115.83 9.16148 116.026 9.12899 116.224 9.1222C116.389 9.1222 116.478 9.12222 116.478 8.98954C116.478 8.85687 116.364 8.85689 116.186 8.85689C115.59 8.85689 114.919 8.85689 114.602 8.85689C114.285 8.85689 113.613 8.85689 112.979 8.85689C112.751 8.85689 112.637 8.90109 112.637 8.98954C112.637 9.09809 112.738 9.1222 112.827 9.1222C113 9.10072 113.174 9.10072 113.347 9.1222C113.417 9.13603 113.482 9.16997 113.532 9.21952C113.581 9.26907 113.614 9.33195 113.626 9.39966C113.614 9.60304 113.553 9.80112 113.448 9.97857C113.207 10.4128 111.724 12.5476 111.255 13.2231C110.621 12.1737 109.899 11.052 109.202 9.82177C109.116 9.68482 109.06 9.53316 109.037 9.37551C109.037 9.32122 109.056 9.26847 109.09 9.22504C109.124 9.18161 109.172 9.14978 109.227 9.13427C109.367 9.09427 109.512 9.07396 109.658 9.07398C109.81 9.07398 109.899 9.074 109.899 8.94132C109.899 8.80865 109.798 8.80859 109.569 8.80859C108.974 8.80859 108.061 8.80859 107.845 8.80859C107.085 8.80859 105.779 8.80859 105.386 8.80859C104.993 8.80859 105.069 8.80864 105.069 8.92925C105.065 8.95078 105.066 8.97304 105.072 8.99411C105.079 9.01517 105.091 9.03436 105.107 9.04991C105.124 9.06546 105.144 9.07688 105.166 9.08318C105.188 9.08948 105.212 9.09051 105.234 9.08605C105.467 9.09127 105.697 9.12778 105.919 9.19456C106.215 9.30158 106.486 9.46322 106.717 9.6702C106.947 9.87717 107.133 10.1254 107.262 10.4007L110.038 14.791L106.907 18.9763C106.362 19.712 106.045 20.0015 105.64 20.1824C105.445 20.2289 105.245 20.2532 105.044 20.2548C104.917 20.2548 104.816 20.2548 104.816 20.3875C104.816 20.5201 104.892 20.5201 105.057 20.5201H105.336H106.692C107.098 20.5201 108.112 20.5201 108.213 20.5201H108.505C108.72 20.5201 108.834 20.5201 108.834 20.3875C108.834 20.2548 108.733 20.2548 108.644 20.2548H108.276C108.204 20.2446 108.136 20.2138 108.081 20.1665C108.027 20.1192 107.989 20.0575 107.972 19.9894C107.976 19.7551 108.055 19.5276 108.2 19.3381L110.596 15.7197C111.344 16.9259 112.257 18.3973 113.131 19.905C113.245 20.11 113.131 20.2427 113.131 20.2548C113.131 20.2669 112.903 20.3271 112.903 20.4236C112.903 20.5201 113.03 20.5563 113.448 20.5804C114.716 20.5804 115.983 20.5804 116.364 20.5804H116.845C117.023 20.5804 117.15 20.5804 117.15 20.4236C117.15 20.2668 117.048 20.2065 116.896 20.2065Z" fill="currentcolor">
	</path>
	<path d="M129.584 8.8568C128.95 8.8568 127.936 8.8568 127.746 8.8568C127.556 8.8568 126.707 8.8568 125.883 8.8568C125.655 8.8568 125.54 8.85678 125.54 8.98946C125.54 9.12213 125.642 9.12211 125.819 9.12211C126.013 9.10492 126.208 9.10492 126.402 9.12211C126.935 9.23066 127.062 9.47194 127.1 10.0026C127.138 10.5333 127.1 10.9313 127.1 13.2591V15.1769C127.1 16.7569 127.1 18.1439 126.162 18.9882C125.561 19.5328 124.76 19.8316 123.931 19.8205C123.201 19.8526 122.484 19.6295 121.915 19.1933C121.129 18.5782 120.648 17.6374 120.648 15.4061V13.2471C120.648 10.9072 120.648 10.473 120.648 9.99056C120.648 9.50811 120.812 9.19447 121.243 9.11004C121.399 9.09567 121.556 9.09567 121.712 9.11004C121.877 9.11004 121.966 9.11006 121.966 8.97738C121.966 8.84471 121.852 8.84473 121.611 8.84473C121.028 8.84473 120.014 8.84473 119.621 8.84473C119.228 8.84473 118.112 8.84473 117.263 8.84473C117.022 8.84473 116.908 8.84471 116.908 8.97738C116.908 9.11006 117.01 9.11004 117.187 9.11004C117.398 9.09089 117.61 9.09089 117.821 9.11004C118.353 9.21859 118.48 9.45987 118.518 9.99056C118.556 10.5213 118.518 10.9193 118.518 13.2471V15.4905C118.518 17.7218 119.126 18.8556 119.963 19.5672C120.978 20.3342 122.257 20.7128 123.55 20.6286C124.778 20.6787 125.979 20.2818 126.909 19.5189C128.266 18.4093 128.443 16.6001 128.443 14.8874V13.2471C128.443 10.9072 128.443 10.473 128.443 9.99056C128.443 9.50811 128.608 9.19447 129.039 9.11004C129.195 9.09567 129.352 9.09567 129.508 9.11004C129.698 9.11004 129.8 9.11006 129.8 8.97738C129.8 8.84471 129.812 8.8568 129.584 8.8568Z" fill="currentcolor">
	</path>
	<path d="M144.008 20.2077C143.857 20.2208 143.704 20.2208 143.552 20.2077C142.841 20.0629 142.202 19.693 141.739 19.1584C140.789 18.2056 139.673 16.8306 138.228 15.1179C138.849 14.749 139.367 14.2427 139.738 13.642C140.109 13.0413 140.321 12.3642 140.358 11.6684C140.356 11.2597 140.256 10.8567 140.065 10.4907C139.874 10.1247 139.596 9.80551 139.255 9.55768C138.355 9.05578 137.317 8.82448 136.276 8.89426H133.994C133.652 8.89426 132.638 8.89426 131.776 8.89426C131.535 8.89426 131.421 8.89431 131.421 9.02699C131.421 9.15966 131.523 9.15964 131.7 9.15964C131.911 9.14049 132.123 9.14049 132.334 9.15964C132.866 9.26819 132.993 9.5094 133.031 10.0401C133.069 10.5708 133.031 10.9688 133.031 13.2966V16.0104C133.031 17.4216 133.031 18.6398 132.955 19.2911C132.892 19.7373 132.815 20.0751 132.486 20.1354C132.294 20.176 132.099 20.1963 131.903 20.1957C131.713 20.1957 131.649 20.1957 131.649 20.3163C131.649 20.4369 131.763 20.4731 131.979 20.4731C132.625 20.4731 133.639 20.4731 133.956 20.4731C134.273 20.4731 135.389 20.4731 136.327 20.4731C136.542 20.4731 136.656 20.4731 136.656 20.3163C136.656 20.1595 136.593 20.1957 136.466 20.1957C136.203 20.1888 135.941 20.1687 135.68 20.1354C135.199 20.0751 135.097 19.7373 135.046 19.2911C134.97 18.6398 134.97 17.4337 134.97 15.9984V15.7813C134.97 15.6848 134.97 15.6607 135.097 15.6607H136.504C136.558 15.6554 136.613 15.6625 136.664 15.6814C136.714 15.7002 136.76 15.7303 136.796 15.7692C137.011 15.9984 137.746 17.0477 138.393 17.892C138.956 18.788 139.712 19.5607 140.611 20.1595C141.148 20.4021 141.744 20.5021 142.335 20.449H143.869C144.059 20.449 144.173 20.449 144.173 20.2922C144.173 20.1354 144.135 20.2077 144.008 20.2077ZM137.506 14.6957C137.17 14.9196 136.758 15.0144 136.352 14.9611C135.924 14.9698 135.496 14.9169 135.084 14.8043C134.97 14.8043 134.945 14.6958 134.945 14.5269V9.84714C134.945 9.72653 134.945 9.66623 135.084 9.63005C135.368 9.57661 135.658 9.5563 135.946 9.56968C136.318 9.56484 136.685 9.63765 137.024 9.78295C137.362 9.92825 137.663 10.1425 137.905 10.4106C138.147 10.6787 138.324 10.994 138.423 11.3343C138.523 11.6746 138.543 12.0316 138.482 12.38C138.528 12.8141 138.463 13.2523 138.293 13.6575C138.123 14.0627 137.853 14.423 137.506 14.7078V14.6957Z" fill="currentcolor">
	</path>
	<path d="M153.744 8.85809H152.02C151.551 8.85809 151.031 8.85809 150.499 8.85809C150.309 8.85809 150.22 8.85807 150.22 8.99075C150.22 9.12342 150.359 9.11136 150.511 9.14755C150.609 9.15953 150.698 9.20582 150.761 9.27726C150.825 9.3487 150.858 9.44012 150.854 9.53352C150.837 9.81106 150.759 10.0821 150.626 10.3295C150.397 10.812 148.357 14.1891 148.204 14.563C147.951 14.1288 145.669 10.426 145.454 9.96771C145.356 9.80821 145.291 9.63207 145.264 9.44908C145.262 9.38485 145.284 9.32211 145.325 9.27152C145.367 9.22092 145.426 9.18564 145.492 9.17169C145.733 9.11139 145.847 9.09931 145.847 9.00282C145.847 8.90633 145.771 8.87016 145.606 8.87016C144.883 8.87016 144.211 8.87016 143.882 8.87016C143.349 8.87016 142.133 8.87016 141.841 8.87016C141.55 8.87016 141.537 8.87014 141.537 9.00282C141.537 9.13549 141.651 9.13547 141.778 9.13547C142.019 9.15515 142.253 9.22513 142.462 9.3405C142.912 9.637 143.291 10.019 143.578 10.4623C144.148 11.2583 146.316 14.6475 146.417 14.8887C146.684 15.3884 146.81 15.945 146.785 16.5049V17.711C146.785 17.9522 146.785 18.6036 146.785 19.2549C146.785 19.7012 146.607 20.0389 146.278 20.0992C146.09 20.1392 145.899 20.1594 145.707 20.1595C145.53 20.1595 145.454 20.1595 145.454 20.2801C145.454 20.4007 145.58 20.4369 145.809 20.4369C146.404 20.4369 147.431 20.4369 147.824 20.4369C148.217 20.4369 149.282 20.4369 150.359 20.4369C150.575 20.4369 150.702 20.4369 150.702 20.2801C150.702 20.1233 150.625 20.1595 150.448 20.1595C150.177 20.1548 149.906 20.1346 149.637 20.0992C149.155 20.0389 149.003 19.7012 148.978 19.2549C148.978 18.6036 148.978 17.9643 148.978 17.711V16.5049C148.941 15.9798 149.023 15.4534 149.218 14.9611C150.148 13.2729 151.181 11.6378 152.311 10.0642C152.532 9.74561 152.833 9.48442 153.186 9.30435C153.407 9.1969 153.649 9.1352 153.896 9.1234C154.073 9.1234 154.2 9.1234 154.2 8.9666C154.2 8.8098 153.921 8.85809 153.744 8.85809Z" fill="currentcolor">
	</path>
	<path d="M181.693 18.1444C181.579 18.1444 181.554 18.2047 181.516 18.3736C181.402 19.0008 181.211 19.3264 180.793 19.5073C180.303 19.658 179.787 19.7193 179.272 19.6882C177.624 19.6882 177.358 19.4591 177.333 18.3977C177.333 17.9514 177.333 16.5402 177.333 15.9854V14.7793C177.333 14.6828 177.333 14.6225 177.434 14.6225C177.827 14.6225 179.424 14.6225 179.728 14.6225C180.324 14.6828 180.552 14.9119 180.628 15.2255C180.663 15.4089 180.684 15.5943 180.692 15.7804C180.69 15.7983 180.692 15.8164 180.698 15.8333C180.705 15.8503 180.715 15.8656 180.728 15.8784C180.742 15.8911 180.758 15.9009 180.776 15.9069C180.793 15.9129 180.812 15.9149 180.831 15.913C180.971 15.913 180.971 15.7442 180.971 15.6236C180.971 15.503 180.971 14.8999 181.034 14.5984C181.097 13.8144 181.161 13.5732 181.161 13.4767C181.161 13.3802 181.161 13.3561 181.047 13.3561C180.933 13.3561 180.907 13.4284 180.793 13.5611C180.574 13.7259 180.299 13.8076 180.02 13.7902C179.652 13.7902 177.789 13.7902 177.485 13.7902C177.383 13.7902 177.371 13.73 177.371 13.6214V9.72561C177.371 9.61706 177.371 9.5688 177.485 9.5688C177.814 9.5688 179.5 9.56886 179.779 9.62917C180.59 9.72566 180.755 9.90653 180.857 10.1839C180.924 10.362 180.958 10.5497 180.958 10.7388C180.958 10.8715 180.958 10.9559 181.097 10.9559C181.237 10.9559 181.237 10.8594 181.262 10.787C181.287 10.7146 181.326 9.9307 181.338 9.7739C181.363 9.43837 181.405 9.10422 181.465 8.77279C181.465 8.70043 181.465 8.64014 181.364 8.64014C181.277 8.65316 181.193 8.67333 181.11 8.70043C180.88 8.74463 180.647 8.77686 180.413 8.79694C180.109 8.79694 176.889 8.79694 176.369 8.79694H175.355H174.088C173.847 8.79694 173.733 8.79692 173.733 8.9296C173.733 9.06227 173.834 9.06225 174.012 9.06225C174.222 9.0431 174.435 9.0431 174.645 9.06225C175.178 9.1708 175.304 9.412 175.342 9.9427C175.381 10.4734 175.342 10.8714 175.342 13.1993V15.913C175.342 17.3242 175.342 18.5424 175.266 19.1937C175.203 19.64 175.127 19.9777 174.797 20.038C174.606 20.0786 174.41 20.0989 174.214 20.0983H174.075C173.923 20.1114 173.77 20.1114 173.619 20.0983C172.907 19.9535 172.268 19.5836 171.806 19.049C170.855 18.0962 169.74 16.7211 168.295 15.0084C168.916 14.6396 169.434 14.1332 169.805 13.5325C170.175 12.9318 170.388 12.2547 170.424 11.5589C170.423 11.1502 170.323 10.7473 170.131 10.3813C169.94 10.0153 169.663 9.69604 169.321 9.44822C168.421 8.94632 167.383 8.71509 166.343 8.78487H164.061C163.719 8.78487 162.705 8.78487 161.843 8.78487C161.602 8.78487 161.488 8.78485 161.488 8.91752C161.488 9.0502 161.589 9.05018 161.767 9.05018C161.977 9.03103 162.19 9.03103 162.4 9.05018C162.933 9.15873 163.06 9.40001 163.098 9.9307C163.136 10.4614 163.098 10.8594 163.098 13.1872V15.901C163.098 17.3121 163.098 18.5304 163.021 19.1817C162.958 19.6279 162.882 19.9657 162.552 20.026C162.361 20.0665 162.165 20.0868 161.969 20.0863C161.779 20.0863 161.716 20.0862 161.716 20.2068C161.716 20.3275 161.83 20.3637 162.045 20.3637C162.692 20.3637 163.706 20.3637 164.023 20.3637C164.34 20.3637 165.468 20.3637 166.406 20.3637C166.621 20.3637 166.736 20.3636 166.736 20.2068C166.736 20.0501 166.672 20.0863 166.545 20.0863C166.282 20.0794 166.02 20.0593 165.759 20.026C165.278 19.9657 165.176 19.6279 165.126 19.1817C165.05 18.5304 165.05 17.3243 165.05 15.889V15.6718C165.05 15.5753 165.05 15.5512 165.176 15.5512H166.583C166.638 15.5459 166.692 15.553 166.743 15.5719C166.794 15.5908 166.839 15.6209 166.875 15.6598C167.09 15.889 167.826 16.9382 168.472 17.7825C169.036 18.6785 169.792 19.4512 170.69 20.05C171.227 20.2926 171.823 20.3926 172.414 20.3395H173.948H174.113H174.265H175.381H176.306C176.788 20.3395 177.295 20.3395 177.992 20.3395C178.689 20.3395 179.576 20.3395 180.793 20.3395C181.402 20.3395 181.554 20.3396 181.668 19.9415C181.782 19.3763 181.855 18.8038 181.883 18.2288C181.769 18.277 181.769 18.1444 181.693 18.1444ZM167.521 14.6948C167.186 14.9187 166.774 15.0136 166.368 14.9602C165.939 14.9689 165.512 14.9161 165.1 14.8034C164.986 14.8034 164.948 14.6949 164.948 14.526V9.84626C164.948 9.72565 164.948 9.66535 165.1 9.62917C165.384 9.57573 165.673 9.55542 165.962 9.5688C166.334 9.56396 166.701 9.63677 167.04 9.78207C167.378 9.92737 167.679 10.1417 167.921 10.4097C168.163 10.6778 168.34 10.9931 168.439 11.3334C168.539 11.6737 168.559 12.0307 168.498 12.3791C168.537 12.8172 168.465 13.258 168.286 13.6636C168.107 14.0691 167.827 14.4271 167.471 14.7069L167.521 14.6948Z" fill="currentcolor">
	</path>
	<path d="M193.836 8.74865L193.405 8.82101C193.035 8.87063 192.662 8.89481 192.289 8.89338H185.875C185.343 8.89338 184.722 8.89338 184.253 8.82101C184.015 8.7819 183.781 8.72136 183.555 8.64014C183.454 8.64014 183.416 8.73662 183.365 8.9296C183.315 9.12258 183.023 10.4493 183.023 10.7026C183.023 10.9559 183.023 10.9438 183.162 10.9438C183.302 10.9438 183.302 10.8835 183.34 10.7629C183.4 10.5685 183.495 10.385 183.619 10.2202C183.86 9.88244 184.253 9.81008 185.191 9.7739L187.599 9.71353V16.0216C187.599 17.4328 187.599 18.6509 187.523 19.3023C187.523 19.7485 187.383 20.0863 187.054 20.1466C186.862 20.1872 186.667 20.2074 186.471 20.2069C186.281 20.2069 186.217 20.2069 186.217 20.3275C186.217 20.4481 186.331 20.4843 186.547 20.4843C187.193 20.4843 188.207 20.4843 188.588 20.4843C188.968 20.4843 190.058 20.4843 191.123 20.4843C191.3 20.4843 191.427 20.4843 191.427 20.3275C191.427 20.1707 191.351 20.2069 191.174 20.2069C190.898 20.2026 190.623 20.1825 190.35 20.1466C189.868 20.0863 189.767 19.7485 189.716 19.3143C189.64 18.651 189.64 17.4328 189.64 16.0216V9.71353H191.681C193.126 9.71353 193.557 10.1719 193.595 10.5699V10.7388C193.595 10.9679 193.595 11.0524 193.772 11.0524C193.95 11.0524 193.899 10.9559 193.912 10.8112C193.912 10.4131 193.912 9.35176 193.912 9.02611C193.912 8.70045 193.95 8.74865 193.836 8.74865Z" fill="currentcolor">
	</path>
	<path d="M215.553 18.1444C215.439 18.1444 215.414 18.2047 215.376 18.3736C215.262 19.0008 215.072 19.3264 214.653 19.5073C214.163 19.658 213.647 19.7193 213.132 19.6882C211.484 19.6882 211.218 19.4591 211.193 18.3977C211.193 17.9514 211.193 16.5402 211.193 15.9854V14.7793C211.193 14.6828 211.193 14.6225 211.294 14.6225C211.687 14.6225 213.284 14.6225 213.589 14.6225C214.184 14.6828 214.413 14.9119 214.489 15.2255C214.523 15.4089 214.544 15.5943 214.552 15.7804C214.55 15.7983 214.552 15.8164 214.559 15.8333C214.565 15.8503 214.575 15.8656 214.588 15.8784C214.602 15.8911 214.618 15.9009 214.636 15.9069C214.654 15.9129 214.673 15.9149 214.691 15.913C214.831 15.913 214.831 15.7442 214.831 15.6236C214.831 15.503 214.831 14.8999 214.894 14.5984C214.958 13.8144 215.021 13.5732 215.021 13.4767C215.021 13.3802 215.021 13.3561 214.907 13.3561C214.793 13.3561 214.768 13.4284 214.653 13.5611C214.434 13.7259 214.159 13.8076 213.88 13.7902C213.513 13.7902 211.649 13.7902 211.345 13.7902C211.244 13.7902 211.231 13.73 211.231 13.6214V9.72561C211.231 9.61706 211.231 9.5688 211.345 9.5688C211.675 9.5688 213.36 9.56886 213.639 9.62917C214.451 9.72566 214.615 9.90653 214.717 10.1839C214.784 10.362 214.818 10.5497 214.818 10.7388C214.818 10.8715 214.818 10.9559 214.958 10.9559C215.097 10.9559 215.097 10.8594 215.122 10.787C215.148 10.7146 215.186 9.9307 215.198 9.7739C215.223 9.43837 215.265 9.10422 215.325 8.77279C215.325 8.70043 215.325 8.64014 215.224 8.64014C215.138 8.65316 215.053 8.67333 214.97 8.70043C214.74 8.74463 214.507 8.77686 214.273 8.79694C213.969 8.79694 210.749 8.79694 210.23 8.79694H209.215H207.948C207.707 8.79694 207.593 8.79692 207.593 8.9296C207.593 9.06227 207.694 9.06225 207.872 9.06225C208.083 9.0431 208.295 9.0431 208.506 9.06225C209.038 9.1708 209.165 9.412 209.203 9.9427C209.241 10.4734 209.203 10.8714 209.203 13.1993V15.913C209.203 17.3242 209.203 18.5424 209.127 19.1937C209.063 19.64 208.987 19.9777 208.658 20.038C208.466 20.0786 208.271 20.0989 208.075 20.0983H207.935C207.783 20.1114 207.631 20.1114 207.479 20.0983C206.767 19.9535 206.128 19.5836 205.666 19.049C204.715 18.0962 203.6 16.7211 202.155 15.0084C202.776 14.6396 203.294 14.1332 203.665 13.5325C204.036 12.9318 204.248 12.2547 204.285 11.5589C204.283 11.1502 204.183 10.7473 203.992 10.3813C203.8 10.0153 203.523 9.69604 203.182 9.44822C202.282 8.94632 201.243 8.71509 200.203 8.78487H197.921C197.579 8.78487 196.565 8.78487 195.703 8.78487C195.462 8.78487 195.348 8.78485 195.348 8.91752C195.348 9.0502 195.449 9.05018 195.627 9.05018C195.838 9.03103 196.05 9.03103 196.261 9.05018C196.793 9.15873 196.92 9.40001 196.958 9.9307C196.996 10.4614 196.958 10.8594 196.958 13.1872V15.901C196.958 17.3121 196.958 18.5304 196.882 19.1817C196.818 19.6279 196.742 19.9657 196.413 20.026C196.221 20.0666 196.026 20.0869 195.83 20.0863C195.64 20.0863 195.576 20.0862 195.576 20.2068C195.576 20.3275 195.69 20.3637 195.906 20.3637C196.552 20.3637 197.566 20.3637 197.883 20.3637C198.2 20.3637 199.328 20.3637 200.254 20.3637C200.469 20.3637 200.583 20.3636 200.583 20.2068C200.583 20.0501 200.52 20.0863 200.393 20.0863C200.13 20.0794 199.868 20.0593 199.607 20.026C199.125 19.9657 199.024 19.6279 198.973 19.1817C198.897 18.5304 198.897 17.3243 198.897 15.889V15.6718C198.897 15.5753 198.897 15.5512 199.024 15.5512H200.431C200.485 15.5459 200.54 15.553 200.591 15.5719C200.641 15.5908 200.687 15.6209 200.723 15.6598C200.938 15.889 201.673 16.9382 202.32 17.7825C202.883 18.6785 203.639 19.4512 204.538 20.05C205.075 20.2926 205.67 20.3926 206.262 20.3395H207.796H207.96H208.113H209.228H210.153C210.635 20.3395 211.142 20.3395 211.839 20.3395C212.537 20.3395 213.424 20.3395 214.641 20.3395C215.249 20.3395 215.401 20.3396 215.515 19.9415C215.63 19.3763 215.702 18.8038 215.731 18.2288C215.68 18.277 215.68 18.1444 215.553 18.1444ZM201.382 14.6948C201.046 14.9187 200.634 15.0136 200.228 14.9602C199.8 14.9689 199.372 14.9161 198.961 14.8034C198.846 14.8034 198.821 14.6949 198.821 14.526V9.84626C198.821 9.72565 198.821 9.66535 198.961 9.62917C199.244 9.57573 199.534 9.55542 199.823 9.5688C200.194 9.56396 200.562 9.63677 200.9 9.78207C201.238 9.92737 201.539 10.1417 201.781 10.4097C202.023 10.6778 202.2 10.9931 202.299 11.3334C202.399 11.6737 202.419 12.0307 202.358 12.3791C202.402 12.8142 202.335 13.253 202.163 13.6583C201.991 14.0636 201.719 14.4234 201.369 14.7069L201.382 14.6948Z" fill="currentcolor">
	</path>
	<path d="M228.772 20.2069C228.543 20.2079 228.313 20.1878 228.088 20.1466C227.746 20.0742 227.277 19.8571 226.668 18.47C225.629 16.1301 223.043 10.0272 222.663 9.13462C222.498 8.78484 222.409 8.64014 222.257 8.64014C222.105 8.64014 222.003 8.80901 221.801 9.25527L217.744 18.7957C217.415 19.5676 217.111 20.0863 216.375 20.1828H215.868C215.742 20.1828 215.678 20.1827 215.678 20.3034C215.678 20.424 215.78 20.4602 215.982 20.4602C216.819 20.4602 217.706 20.4602 217.896 20.4602C218.403 20.4602 219.088 20.4602 219.608 20.4602C219.785 20.4602 219.887 20.4602 219.887 20.3034C219.887 20.1466 219.887 20.1828 219.646 20.1828H219.405C218.898 20.1828 218.758 19.9777 218.758 19.7003C218.784 19.3763 218.866 19.0585 218.999 18.7595L219.874 16.6488C219.874 16.5523 219.937 16.5282 220.013 16.5282H223.613C223.65 16.5242 223.687 16.533 223.717 16.553C223.747 16.573 223.769 16.6027 223.778 16.6368L225.046 19.8089C225.062 19.8403 225.072 19.8747 225.074 19.9098C225.076 19.945 225.07 19.9801 225.057 20.013C225.044 20.0459 225.024 20.0758 224.998 20.1009C224.972 20.126 224.941 20.1457 224.906 20.1586C224.742 20.1586 224.678 20.1586 224.678 20.2913C224.678 20.424 224.868 20.3999 225.16 20.4119C226.427 20.4119 227.695 20.4119 228.215 20.4119C228.734 20.4119 228.963 20.4119 228.963 20.2551C228.963 20.0983 228.899 20.2069 228.772 20.2069ZM223.309 15.7925H220.33C220.267 15.7925 220.254 15.7924 220.267 15.6839L221.75 11.9087C221.75 11.8484 221.75 11.776 221.851 11.776C221.953 11.776 221.915 11.8484 221.927 11.9087L223.385 15.6959C223.385 15.6959 223.385 15.7925 223.309 15.7925Z" fill="currentcolor">
	</path>
	<path d="M238 8.74865L237.569 8.82101C237.199 8.87063 236.826 8.89481 236.453 8.89338H230.052C229.52 8.89338 228.898 8.89338 228.429 8.82101C228.191 8.7819 227.958 8.72136 227.732 8.64014C227.631 8.64014 227.593 8.73662 227.542 8.9296C227.491 9.12258 227.2 10.4493 227.2 10.7026C227.2 10.9559 227.2 10.9438 227.339 10.9438C227.479 10.9438 227.479 10.8835 227.517 10.7629C227.577 10.5685 227.671 10.385 227.796 10.2202C228.036 9.88244 228.429 9.81008 229.367 9.7739L231.776 9.71353V16.0216C231.776 17.4328 231.776 18.6509 231.7 19.3023C231.7 19.7485 231.56 20.0863 231.231 20.1466C231.039 20.1872 230.844 20.2074 230.648 20.2069C230.458 20.2069 230.394 20.2069 230.394 20.3275C230.394 20.4481 230.508 20.4843 230.724 20.4843C231.37 20.4843 232.384 20.4843 232.765 20.4843C233.145 20.4843 234.235 20.4843 235.3 20.4843C235.477 20.4843 235.604 20.4843 235.604 20.3275C235.604 20.1707 235.528 20.2069 235.35 20.2069C235.075 20.2026 234.8 20.1825 234.526 20.1466C234.045 20.0863 233.943 19.7485 233.893 19.3143C233.817 18.651 233.817 17.4328 233.817 16.0216V9.71353H235.857C237.303 9.71353 237.734 10.1719 237.772 10.5699V10.7388C237.772 10.9679 237.772 11.0524 237.949 11.0524C238.126 11.0524 238.076 10.9559 238.088 10.8112C238.088 10.4131 238.088 9.35176 238.088 9.02611C238.088 8.70045 238.114 8.74865 238 8.74865Z" fill="currentcolor">
	</path>
	<path d="M244.01 13.4768L243.554 13.1511C242.21 12.1862 241.843 11.6434 241.843 10.9318C241.846 10.703 241.9 10.4776 242.002 10.2702C242.103 10.0629 242.25 9.87842 242.432 9.72906C242.614 9.5797 242.828 9.46886 243.058 9.40383C243.289 9.33879 243.531 9.32103 243.769 9.35178C244.106 9.33096 244.443 9.38945 244.75 9.52198C245.058 9.65451 245.326 9.857 245.531 10.1116C245.774 10.402 245.92 10.7549 245.95 11.1248C245.95 11.3057 245.95 11.4022 246.114 11.4022C246.279 11.4022 246.292 11.2816 246.292 10.9439C246.292 9.73775 246.355 9.30358 246.355 9.09854C246.355 8.8935 246.279 8.94171 246.127 8.91759C245.425 8.73417 244.7 8.64489 243.972 8.65228C241.729 8.65228 240.233 9.85837 240.233 11.559C240.233 12.7651 240.841 13.8868 242.629 15.1774L243.376 15.7322C244.72 16.7333 244.961 17.4449 244.961 18.1445C244.945 18.3968 244.876 18.6435 244.757 18.8696C244.639 19.0957 244.473 19.2966 244.27 19.4601C244.068 19.6236 243.832 19.7462 243.578 19.8207C243.325 19.8951 243.058 19.9198 242.793 19.8933C242.279 19.9275 241.768 19.7912 241.348 19.5076C240.927 19.2239 240.623 18.8105 240.486 18.3374C240.406 18.0825 240.359 17.8192 240.347 17.5534C240.347 17.4328 240.347 17.2881 240.182 17.2881C240.017 17.2881 240.005 17.457 239.992 17.6862C239.979 17.9153 239.916 18.8923 239.916 19.7004C239.916 20.0381 239.916 20.1104 240.22 20.219C240.967 20.5118 241.771 20.6476 242.578 20.617C243.468 20.642 244.348 20.4244 245.113 19.9898C245.587 19.7057 245.976 19.31 246.243 18.8409C246.509 18.3718 246.644 17.8454 246.634 17.3123C246.672 15.9373 245.975 14.8759 244.01 13.4768Z" fill="currentcolor">
	</path>
	<line opacity="0.4" x1="71.25" y1="8" x2="71.25" y2="22" stroke="currentcolor" stroke-width="0.5">
	</line>
</svg>
