<svg xmlns="http://www.w3.org/2000/svg" xmlns:xlink="http://www.w3.org/1999/xlink" version="1.1" width="90" height="44" fill="white">
	<path d="M88.67 27.57c.6-.38 1.41.48.3 1.41a15.35 15.35 0 01-4.33 2.87 5.98 5.98 0 01-6.15-.82c-2.5-2.2-2.6-6.7-2.05-9.61a9.47 9.47 0 01-1.34-1.68c-.08-.11-.11-.22-.19-.3l-.11-.26c-.07-.33.11-.67.45-.86a1.1 1.1 0 011.12.19l.33.3.49.37c.9-2.38 2.57-4.4 4.77-5.74a4.54 4.54 0 013.8-.34c1.6.9 2.53 2.69 2.31 4.52a7.21 7.21 0 01-5 6.22c-1.6.52-3.31.3-4.73-.6-.22 2.43.34 5.22 1.64 6.42a4.65 4.65 0 004.85.4c1.12-.48 2.2-1.15 3.13-1.93.22-.19.45-.38.7-.56zm-3.88-12.53a2.32 2.32 0 00-1.86.12 10.1 10.1 0 00-4.07 5.66c.94.93 2.28 1.3 3.58 1.08a5.21 5.21 0 003.47-4.4c.11-.97-.3-1.9-1.12-2.46zM49.42 2.67a214.66 214.66 0 00-8.58 37.76l-.18 1.15c-.19 1.2-.94 1.35-1.35 1.3-.37-.03-.67-.44-.52-1.63a235.84 235.84 0 017.98-39.66c.4-1.3 1.42-2.05 2.16-1.27.67.6.9 1.56.49 2.35zm24.67 13.2c-1.41 2.6-3.5 6.22-5.3 9.35l.8 1.12c.81 1.12 1.67 2.27 2.49 3.5.45.56.78 1.42.33 1.9-.44.49-.78.38-1.3-.18-1-1.05-2.16-2.46-3.13-3.62l-.45-.56a47.97 47.97 0 00-4.4 10.14c-.18.6-.56 1.68-1.19 1.68h-.19c-.7-.15-.6-1.27-.44-1.94.97-4.18 2.53-8.2 4.7-11.97A50.6 50.6 0 0162.86 20c-.37-.67-.67-1.27-.97-1.71-.22.48-.44 1.15-.74 1.86a40.26 40.26 0 01-1.72 4.14c-2.94 5.59-5.48 8.2-7.94 8.2-.78 0-1.49-.37-1.94-.97-.74-.9-1.71-2.95-1-10 .3-3.2.86-6.1.97-6.92v-.23c.15-.7.82-1.6 1.53-1.41.7.18.55.82.48 1.41v.45c-.11.78-.34 3.2-.63 6.52l-.08.82c-.56 6.34-.33 7.8.67 8.17 1.76 0 3.92-3.13 4.96-5.11a61.48 61.48 0 003.84-10.44v-.07c.15-.71.45-2.05 1.3-1.68.53.22 1.05 1.23 1.27 1.68a48.7 48.7 0 004.51 8.2c1.98-3.28 4.18-7.12 5.56-9.54.78-1.42 1.3-2.28 1.41-2.39l.19-.26c.22-.34.48-.67.78-.97.45-.41 1.12-.67 1.42-.48.3.18.45.55.37 1.15a6.81 6.81 0 01-.86 1.83c-.07.07-1 1.56-2.16 3.61zM29.55 28.53a6.6 6.6 0 01.33 3.46 6.86 6.86 0 01-6.82 5.9c-.26 0-.56 0-.86-.04a8.55 8.55 0 01-3.24-1.09c-1.3-.74-2.6-1.82-3.99-3.35a16.28 16.28 0 01-3.99 3.35c-1.04.6-2.16.97-3.24 1.09-.26.03-.56.03-.86.03a6.9 6.9 0 01-6.45-9.36c.15-.4.3-.81.49-1.15l.75-1.64.03-.07a374.1 374.1 0 017.12-14.58l.08-.18.78-1.53c.3-.6.67-1.2 1.16-1.8a5.4 5.4 0 018.27 0c.49.6.86 1.2 1.16 1.8l.78 1.53.11.18a374.3 374.3 0 017.12 14.58v.03c.22.56.49 1.09.75 1.64.22.41.4.82.52 1.2zM15 30.2c1.75-2.2 2.87-4.25 3.24-6 .15-.7.19-1.38.12-1.97a2.68 2.68 0 00-.53-1.34 3.48 3.48 0 00-2.83-1.42c-1.2 0-2.24.52-2.83 1.42-.26.37-.45.82-.52 1.34a6.1 6.1 0 00.1 1.97c.38 1.75 1.5 3.8 3.25 6zm12.9 1.53c.11-.82 0-1.64-.23-2.46-.1-.33-.26-.63-.4-1-.27-.53-.49-1.09-.75-1.64v-.04c-2.24-4.81-4.59-9.7-7.08-14.46l-.12-.2c-.26-.48-.52-.96-.78-1.48s-.56-1-.9-1.42a3.3 3.3 0 00-2.56-1.2c-1.01 0-1.9.42-2.58 1.2-.37.41-.63.9-.9 1.42l-.77 1.49-.08.19c-2.5 4.8-4.84 9.65-7.08 14.46l-.04.07c-.22.52-.48 1.08-.74 1.6-.15.38-.3.71-.41 1.01-.3.9-.41 1.68-.3 2.5a4.8 4.8 0 002.94 3.76 5.49 5.49 0 004.92-.48 15.47 15.47 0 003.66-3.13c-2.1-2.61-3.43-5-3.92-7.16a7.78 7.78 0 01-.15-2.76c.11-.82.41-1.56.86-2.2a5.42 5.42 0 014.55-2.3c1.86 0 3.54.85 4.55 2.3.44.68.74 1.38.85 2.2.11.86.08 1.76-.15 2.76-.48 2.13-1.79 4.51-3.91 7.12a14.5 14.5 0 003.65 3.13 6 6 0 002.46.82 4.8 4.8 0 005.4-4.1z">
	</path>
</svg>
